<?xml version="1.0" encoding="UTF-8"?>
<svg version="1.1" xmlns="http://www.w3.org/2000/svg" width="238" height="67">
<path d="M0 0 C3.1875 0.4375 3.1875 0.4375 5.4375 3.25 C6.015 4.301875 6.5925 5.35375 7.1875 6.4375 C8.919067 9.73805493 8.919067 9.73805493 12.41015625 10.3515625 C13.67730469 10.58617187 14.94445313 10.82078125 16.25 11.0625 C23.10739987 12.35739987 23.10739987 12.35739987 24.1875 13.4375 C23.93147432 19.58211623 21.63385878 25.99114122 17.1875 30.4375 C18.25291016 30.80101562 18.25291016 30.80101562 19.33984375 31.171875 C20.25894531 31.50703125 21.17804687 31.8421875 22.125 32.1875 C23.04152344 32.51234375 23.95804688 32.8371875 24.90234375 33.171875 C27.1875 34.4375 27.1875 34.4375 27.83032227 36.51660156 C27.94819092 37.15049805 28.06605957 37.78439453 28.1875 38.4375 C28.76193848 38.34662109 29.33637695 38.25574219 29.92822266 38.16210938 C32.55559769 37.74918322 35.18401354 37.34328859 37.8125 36.9375 C38.71613281 36.79441406 39.61976562 36.65132812 40.55078125 36.50390625 C45.14189866 35.80015833 49.52581815 35.25165222 54.1875 35.4375 C54.16429688 36.35273437 54.14109375 37.26796875 54.1171875 38.2109375 C54.09914063 39.39945313 54.08109375 40.58796875 54.0625 41.8125 C54.03929688 42.99585938 54.01609375 44.17921875 53.9921875 45.3984375 C53.85883771 48.54903817 53.85883771 48.54903817 56.1875 50.4375 C55.88246569 52.44201121 55.54669321 54.44198218 55.1875 56.4375 C55.5452614 58.71400745 55.5452614 58.71400745 56.1875 60.4375 C54.5375 60.7675 52.8875 61.0975 51.1875 61.4375 C50.6925 59.4575 50.6925 59.4575 50.1875 57.4375 C44.2475 58.4275 44.2475 58.4275 38.1875 59.4375 C38.1875 60.7575 38.1875 62.0775 38.1875 63.4375 C36.3125 64.0625 36.3125 64.0625 34.1875 64.4375 C33.5275 63.7775 32.8675 63.1175 32.1875 62.4375 C32.1875 60.4575 32.1875 58.4775 32.1875 56.4375 C42.5825 54.9525 42.5825 54.9525 53.1875 53.4375 C53.1875 52.7775 53.1875 52.1175 53.1875 51.4375 C52.10210937 51.581875 51.01671875 51.72625 49.8984375 51.875 C48.4531509 52.06269956 47.00783693 52.25018838 45.5625 52.4375 C44.84964844 52.53289063 44.13679688 52.62828125 43.40234375 52.7265625 C42.69980469 52.81679688 41.99726562 52.90703125 41.2734375 53 C40.6345459 53.08378906 39.9956543 53.16757812 39.33740234 53.25390625 C36.62993323 53.48511415 33.90482333 53.4375 31.1875 53.4375 C29.2075 48.4875 27.2275 43.5375 25.1875 38.4375 C24.5275 40.4175 23.8675 42.3975 23.1875 44.4375 C20.1484375 45.6796875 20.1484375 45.6796875 16.5625 46.3125 C15.37398437 46.53679688 14.18546875 46.76109375 12.9609375 46.9921875 C12.04570313 47.13914063 11.13046875 47.28609375 10.1875 47.4375 C9.68057308 49.0186292 9.18223557 50.60251383 8.6875 52.1875 C8.4090625 53.06921875 8.130625 53.9509375 7.84375 54.859375 C7.02304715 57.64017529 7.02304715 57.64017529 7.1875 61.4375 C3.62508973 64.7542268 0.33085692 65.57803211 -4.4375 65.5625 C-5.63246094 65.56636719 -5.63246094 65.56636719 -6.8515625 65.5703125 C-8.8125 65.4375 -8.8125 65.4375 -9.8125 64.4375 C-9.52519945 62.09805264 -9.19313221 59.7635857 -8.8125 57.4375 C-11.8870356 58.2138932 -11.8870356 58.2138932 -13.8125 60.4375 C-16.40995406 63.03495406 -18.25736987 63.38085407 -21.875 63.75 C-27.01864819 63.34177395 -31.1439197 61.54164887 -35.8125 59.4375 C-36.27807346 56.25608133 -36.32213377 54.18406877 -34.4765625 51.48046875 C-32.96991976 49.7439392 -31.43313536 48.067782 -29.8125 46.4375 C-28.8225 46.7675 -27.8325 47.0975 -26.8125 47.4375 C-26.4825 44.4675 -26.1525 41.4975 -25.8125 38.4375 C-28.1225 37.7775 -30.4325 37.1175 -32.8125 36.4375 C-32.8125 35.7775 -32.8125 35.1175 -32.8125 34.4375 C-33.8025 34.4375 -34.7925 34.4375 -35.8125 34.4375 C-34.97423832 29.40792995 -34.26305473 26.55071642 -30.125 23.375 C-21.12323446 18.10981638 -21.12323446 18.10981638 -15.8125 19.4375 C-13.5025 16.4675 -11.1925 13.4975 -8.8125 10.4375 C-9.8025 9.1175 -10.7925 7.7975 -11.8125 6.4375 C-10.625 3.9375 -10.625 3.9375 -8.8125 1.4375 C-6.1875 1.1875 -6.1875 1.1875 -3.8125 1.4375 C-2.8125 0.4375 -2.8125 0.4375 0 0 Z M9.1875 30.4375 C7.89116379 31.50395115 7.89116379 31.50395115 8.125 34 C8.145625 34.804375 8.16625 35.60875 8.1875 36.4375 C10.63230079 36.24921228 10.63230079 36.24921228 13.1875 35.4375 C14.54770151 33.46991727 14.54770151 33.46991727 15.1875 31.4375 C13.1960944 31.05616701 11.19470923 30.72424418 9.1875 30.4375 Z M49.1875 38.4375 C49.1875 39.0975 49.1875 39.7575 49.1875 40.4375 C49.8475 40.4375 50.5075 40.4375 51.1875 40.4375 C51.1875 39.7775 51.1875 39.1175 51.1875 38.4375 C50.5275 38.4375 49.8675 38.4375 49.1875 38.4375 Z M42.1875 39.4375 C42.1875 40.0975 42.1875 40.7575 42.1875 41.4375 C42.8475 41.4375 43.5075 41.4375 44.1875 41.4375 C44.1875 40.7775 44.1875 40.1175 44.1875 39.4375 C43.5275 39.4375 42.8675 39.4375 42.1875 39.4375 Z M34.1875 40.4375 C34.5175 41.0975 34.8475 41.7575 35.1875 42.4375 C36.8375 42.1075 38.4875 41.7775 40.1875 41.4375 C40.1875 41.1075 40.1875 40.7775 40.1875 40.4375 C38.2075 40.4375 36.2275 40.4375 34.1875 40.4375 Z M46.1875 42.4375 C47.1875 44.4375 47.1875 44.4375 47.1875 44.4375 Z M49.1875 42.4375 C49.1875 43.0975 49.1875 43.7575 49.1875 44.4375 C49.8475 44.4375 50.5075 44.4375 51.1875 44.4375 C51.1875 43.7775 51.1875 43.1175 51.1875 42.4375 C50.5275 42.4375 49.8675 42.4375 49.1875 42.4375 Z M39.1875 43.4375 C39.1875 44.0975 39.1875 44.7575 39.1875 45.4375 C39.8475 45.4375 40.5075 45.4375 41.1875 45.4375 C41.1875 44.7775 41.1875 44.1175 41.1875 43.4375 C40.5275 43.4375 39.8675 43.4375 39.1875 43.4375 Z M42.1875 43.4375 C42.8475 44.0975 43.5075 44.7575 44.1875 45.4375 C44.1875 44.7775 44.1875 44.1175 44.1875 43.4375 C43.5275 43.4375 42.8675 43.4375 42.1875 43.4375 Z M32.1875 44.4375 C32.1875 45.0975 32.1875 45.7575 32.1875 46.4375 C32.8475 46.4375 33.5075 46.4375 34.1875 46.4375 C34.1875 45.7775 34.1875 45.1175 34.1875 44.4375 C33.5275 44.4375 32.8675 44.4375 32.1875 44.4375 Z M46.1875 46.4375 C46.1875 47.0975 46.1875 47.7575 46.1875 48.4375 C46.8475 48.1075 47.5075 47.7775 48.1875 47.4375 C47.5275 47.1075 46.8675 46.7775 46.1875 46.4375 Z M49.1875 46.4375 C49.1875 47.0975 49.1875 47.7575 49.1875 48.4375 C49.8475 48.4375 50.5075 48.4375 51.1875 48.4375 C51.1875 47.7775 51.1875 47.1175 51.1875 46.4375 C50.5275 46.4375 49.8675 46.4375 49.1875 46.4375 Z M36.1875 47.4375 C36.1875 48.0975 36.1875 48.7575 36.1875 49.4375 C36.8475 49.4375 37.5075 49.4375 38.1875 49.4375 C38.1875 48.7775 38.1875 48.1175 38.1875 47.4375 C37.5275 47.4375 36.8675 47.4375 36.1875 47.4375 Z M39.1875 47.4375 C39.1875 48.0975 39.1875 48.7575 39.1875 49.4375 C40.1775 49.1075 41.1675 48.7775 42.1875 48.4375 C41.1975 48.1075 40.2075 47.7775 39.1875 47.4375 Z M43.1875 47.4375 C44.1875 49.4375 44.1875 49.4375 44.1875 49.4375 Z M34.1875 48.4375 C35.1875 50.4375 35.1875 50.4375 35.1875 50.4375 Z " fill="#79B333" transform="translate(39.8125,0.5625)"/>
<path d="M0 0 C1.16144531 0.12890625 2.32289062 0.2578125 3.51953125 0.390625 C4.39996094 0.50921875 5.28039062 0.6278125 6.1875 0.75 C6.1875 2.07 6.1875 3.39 6.1875 4.75 C6.8475 5.08 7.5075 5.41 8.1875 5.75 C8.5175 6.74 8.8475 7.73 9.1875 8.75 C9.579375 8.275625 9.97125 7.80125 10.375 7.3125 C12.70508675 5.30380452 14.11822068 4.89615616 17.1875 4.75 C20.02463564 6.13557787 21.95751704 7.52001704 24.1875 9.75 C24.765 9.110625 25.3425 8.47125 25.9375 7.8125 C28.16812401 5.76776132 29.26186391 5.16794801 32.1875 4.75 C32.8475 6.07 33.5075 7.39 34.1875 8.75 C34.579375 8.275625 34.97125 7.80125 35.375 7.3125 C37.72575831 5.28598422 39.08537709 4.89428479 42.1875 4.75 C45.4375 5.75 45.4375 5.75 48.1875 7.75 C49.0625 11.4375 49.0625 11.4375 49.1875 14.75 C47.8675 15.08 46.5475 15.41 45.1875 15.75 C45.8475 17.07 46.5075 18.39 47.1875 19.75 C44.04878812 21.31935594 41.64894178 21.10201103 38.1875 20.75 C35.25 18.5 35.25 18.5 33.1875 15.75 C33.1875 14.43 33.1875 13.11 33.1875 11.75 C32.5275 11.75 31.8675 11.75 31.1875 11.75 C31.1875 14.72 31.1875 17.69 31.1875 20.75 C28.8775 20.75 26.5675 20.75 24.1875 20.75 C23.6925 19.265 23.6925 19.265 23.1875 17.75 C22.65125 18.245 22.115 18.74 21.5625 19.25 C18.50504465 21.18102443 16.749327 21.19522837 13.1875 20.75 C10.8125 19.25 10.8125 19.25 9.1875 17.75 C8.8575 18.74 8.5275 19.73 8.1875 20.75 C5.11859509 21.09098943 3.55685783 20.96961817 0.875 19.375 C-1.70755264 15.35769589 -1.13186644 11.39855591 -0.8125 6.75 C-1.8025 6.75 -2.7925 6.75 -3.8125 6.75 C-3.4825 7.28625 -3.1525 7.8225 -2.8125 8.375 C-1.52957822 11.42193922 -1.40254088 13.47032701 -1.8125 16.75 C-3.375 19.125 -3.375 19.125 -5.8125 20.75 C-9.5625 21 -9.5625 21 -12.8125 20.75 C-12.8125 18.44 -12.8125 16.13 -12.8125 13.75 C-11.8225 13.75 -10.8325 13.75 -9.8125 13.75 C-10.3075 12.945625 -10.3075 12.945625 -10.8125 12.125 C-12.10868989 9.046549 -12.29538863 7.06123632 -11.8125 3.75 C-7.94028083 -0.30935244 -5.46612572 -0.66256069 0 0 Z M15.1875 11.75 C15.1875 12.74 15.1875 13.73 15.1875 14.75 C16.1775 14.42 17.1675 14.09 18.1875 13.75 C17.8575 13.09 17.5275 12.43 17.1875 11.75 C16.5275 11.75 15.8675 11.75 15.1875 11.75 Z M39.1875 11.75 C40.1875 13.75 40.1875 13.75 40.1875 13.75 Z M5.1875 12.75 C5.5175 13.41 5.8475 14.07 6.1875 14.75 C6.8475 14.75 7.5075 14.75 8.1875 14.75 C8.1875 14.09 8.1875 13.43 8.1875 12.75 C7.1975 12.75 6.2075 12.75 5.1875 12.75 Z M40.1875 13.75 C40.1875 14.41 40.1875 15.07 40.1875 15.75 C40.8475 15.42 41.5075 15.09 42.1875 14.75 C41.5275 14.42 40.8675 14.09 40.1875 13.75 Z " fill="#132603" transform="translate(110.8125,34.25)"/>
<path d="M0 0 C9.01746725 0.76419214 9.01746725 0.76419214 13 4 C13 4.99 13 5.98 13 7 C13.57443848 6.90912109 14.14887695 6.81824219 14.74072266 6.72460938 C17.36809769 6.31168322 19.99651354 5.90578859 22.625 5.5 C23.52863281 5.35691406 24.43226562 5.21382812 25.36328125 5.06640625 C29.95439866 4.36265833 34.33831815 3.81415222 39 4 C38.97679688 4.91523437 38.95359375 5.83046875 38.9296875 6.7734375 C38.91164063 7.96195313 38.89359375 9.15046875 38.875 10.375 C38.85179688 11.55835938 38.82859375 12.74171875 38.8046875 13.9609375 C38.67133771 17.11153817 38.67133771 17.11153817 41 19 C40.69496569 21.00451121 40.35919321 23.00448218 40 25 C40.3577614 27.27650745 40.3577614 27.27650745 41 29 C39.35 29.33 37.7 29.66 36 30 C35.505 28.02 35.505 28.02 35 26 C31.04 26.66 27.08 27.32 23 28 C23 29.32 23 30.64 23 32 C21.125 32.625 21.125 32.625 19 33 C18.34 32.34 17.68 31.68 17 31 C17 29.02 17 27.04 17 25 C27.395 23.515 27.395 23.515 38 22 C38 21.34 38 20.68 38 20 C36.91460937 20.144375 35.82921875 20.28875 34.7109375 20.4375 C33.2656509 20.62519956 31.82033693 20.81268838 30.375 21 C29.66214844 21.09539063 28.94929688 21.19078125 28.21484375 21.2890625 C27.51230469 21.37929688 26.80976562 21.46953125 26.0859375 21.5625 C25.4470459 21.64628906 24.8081543 21.73007812 24.14990234 21.81640625 C21.44243323 22.04761415 18.71732333 22 16 22 C14.02 17.05 12.04 12.1 10 7 C9.34 8.98 8.68 10.96 8 13 C4.9609375 14.2421875 4.9609375 14.2421875 1.375 14.875 C0.18648437 15.09929688 -1.00203125 15.32359375 -2.2265625 15.5546875 C-3.59941406 15.77511719 -3.59941406 15.77511719 -5 16 C-5.50692692 17.5811292 -6.00526443 19.16501383 -6.5 20.75 C-6.7784375 21.63171875 -7.056875 22.5134375 -7.34375 23.421875 C-8.16445285 26.20267529 -8.16445285 26.20267529 -8 30 C-11.56241027 33.3167268 -14.85664308 34.14053211 -19.625 34.125 C-20.81996094 34.12886719 -20.81996094 34.12886719 -22.0390625 34.1328125 C-24 34 -24 34 -25 33 C-24.71269945 30.66055264 -24.38063221 28.3260857 -24 26 C-27.0745356 26.7763932 -27.0745356 26.7763932 -29 29 C-31.59745406 31.59745406 -33.44486987 31.94335407 -37.0625 32.3125 C-42.20614819 31.90427395 -46.3314197 30.10414887 -51 28 C-51.46557346 24.81858133 -51.50963377 22.74656877 -49.6640625 20.04296875 C-48.15741976 18.3064392 -46.62063536 16.630282 -45 15 C-45 18.59760476 -45.89512296 19.2215623 -48 22 C-48.70514846 24.14733927 -48.70514846 24.14733927 -49 26 C-48.401875 26.12375 -47.80375 26.2475 -47.1875 26.375 C-45 27 -45 27 -42 29 C-35.86704936 29.4289669 -35.86704936 29.4289669 -30 28 C-29.7525 27.360625 -29.505 26.72125 -29.25 26.0625 C-28 24 -28 24 -26.1015625 23.29296875 C-24.08173458 22.80041422 -22.04113773 22.39505892 -20 22 C-20.99 25.3 -21.98 28.6 -23 32 C-16.21398903 31.49694684 -16.21398903 31.49694684 -10 29 C-10.061875 28.195625 -10.12375 27.39125 -10.1875 26.5625 C-9.94798358 22.0116881 -9.04779417 18.08729767 -7 14 C-3.01226958 11.06784528 2.22421075 11.81271415 7 12 C7 10.02 7 8.04 7 6 C6.01 5.67 5.02 5.34 4 5 C3.505 3.515 3.505 3.515 3 2 C1.35 2.66 -0.3 3.32 -2 4 C-1.34 2.68 -0.68 1.36 0 0 Z M34 7 C34 7.66 34 8.32 34 9 C34.66 9 35.32 9 36 9 C36 8.34 36 7.68 36 7 C35.34 7 34.68 7 34 7 Z M27 8 C27 8.66 27 9.32 27 10 C27.66 10 28.32 10 29 10 C29 9.34 29 8.68 29 8 C28.34 8 27.68 8 27 8 Z M19 9 C19.33 9.66 19.66 10.32 20 11 C21.65 10.67 23.3 10.34 25 10 C25 9.67 25 9.34 25 9 C23.02 9 21.04 9 19 9 Z M31 11 C32 13 32 13 32 13 Z M34 11 C34 11.66 34 12.32 34 13 C34.66 13 35.32 13 36 13 C36 12.34 36 11.68 36 11 C35.34 11 34.68 11 34 11 Z M24 12 C24 12.66 24 13.32 24 14 C24.66 14 25.32 14 26 14 C26 13.34 26 12.68 26 12 C25.34 12 24.68 12 24 12 Z M27 12 C27.66 12.66 28.32 13.32 29 14 C29 13.34 29 12.68 29 12 C28.34 12 27.68 12 27 12 Z M17 13 C17 13.66 17 14.32 17 15 C17.66 15 18.32 15 19 15 C19 14.34 19 13.68 19 13 C18.34 13 17.68 13 17 13 Z M31 15 C31 15.66 31 16.32 31 17 C31.66 16.67 32.32 16.34 33 16 C32.34 15.67 31.68 15.34 31 15 Z M34 15 C34 15.66 34 16.32 34 17 C34.66 17 35.32 17 36 17 C36 16.34 36 15.68 36 15 C35.34 15 34.68 15 34 15 Z M21 16 C21 16.66 21 17.32 21 18 C21.66 18 22.32 18 23 18 C23 17.34 23 16.68 23 16 C22.34 16 21.68 16 21 16 Z M24 16 C24 16.66 24 17.32 24 18 C24.99 17.67 25.98 17.34 27 17 C26.01 16.67 25.02 16.34 24 16 Z M28 16 C29 18 29 18 29 18 Z M19 17 C20 19 20 19 20 19 Z " fill="#142804" transform="translate(55,32)"/>
<path d="M0 0 C3.875 1.75 3.875 1.75 5 4 C7.31312122 4.60430292 9.65236404 5.11048541 12 5.5625 C18.90613267 6.90613267 18.90613267 6.90613267 20 8 C19.74347611 14.15657345 17.5414858 18.97436553 14 24 C10.5647952 26.29013653 9.014669 26.17842973 5 26 C4.67 27.65 4.34 29.3 4 31 C5.65 30.67 7.3 30.34 9 30 C9 30.66 9 31.32 9 32 C7.02 32 5.04 32 3 32 C1.875 26.375 1.875 26.375 3 23 C1.8553125 22.566875 1.8553125 22.566875 0.6875 22.125 C-2 21 -2 21 -5 19 C-5 20.65 -5 22.3 -5 24 C-7.6666419 25.33332095 -9.16680303 24.67102033 -12 24 C-12.3459973 18.34871077 -11.68154755 14.88424732 -9 10 C-6.875 8.8125 -6.875 8.8125 -5 8 C-4.19471111 5.94999129 -4.19471111 5.94999129 -4 4 C-2.02 4 -0.04 4 2 4 C1.01 3.01 0.02 2.02 -1 1 C-0.67 0.67 -0.34 0.34 0 0 Z " fill="#77AF34" transform="translate(44,6)"/>
<path d="M0 0 C1.875 2.125 1.875 2.125 3 4 C3.556875 3.195625 4.11375 2.39125 4.6875 1.5625 C7 -1 7 -1 9.375 -2 C12.90740001 -2 15.01889329 -0.82931548 18 1 C19.54586876 4.09173752 19.29359521 6.59429552 19 10 C17.4375 12.4375 17.4375 12.4375 15 14 C11.5625 14.5625 11.5625 14.5625 8 14 C5.0625 11.5 5.0625 11.5 3 9 C2.278125 9.825 1.55625 10.65 0.8125 11.5 C-2 14 -2 14 -4.8125 14.3125 C-5.534375 14.209375 -6.25625 14.10625 -7 14 C-7 16.97 -7 19.94 -7 23 C-9.64 23 -12.28 23 -15 23 C-14.7795682 19.7472868 -14.51851809 16.49906889 -14.25 13.25 C-14.188125 12.32960938 -14.12625 11.40921875 -14.0625 10.4609375 C-13.46938061 3.64006446 -13.46938061 3.64006446 -11.109375 0.421875 C-6.84546034 -2.45231932 -4.57805282 -2.00289811 0 0 Z M-7 5 C-7 5.99 -7 6.98 -7 8 C-6.01 7.67 -5.02 7.34 -4 7 C-4 6.34 -4 5.68 -4 5 C-4.99 5 -5.98 5 -7 5 Z M10 5 C10 5.99 10 6.98 10 8 C10.99 7.67 11.98 7.34 13 7 C13 6.34 13 5.68 13 5 C12.01 5 11.02 5 10 5 Z " fill="#79B333" transform="translate(215,41)"/>
<path d="M0 0 C2.31 0 4.62 0 7 0 C7 2.31 7 4.62 7 7 C7.33 6.67 7.66 6.34 8 6 C8 5.175 8 4.35 8 3.5 C8 1 8 1 9 0 C11.31 0 13.62 0 16 0 C16 7.26 16 14.52 16 22 C9 21 9 21 8 20 C8 18.33333333 8 16.66666667 8 15 C7.67 14.67 7.34 14.34 7 14 C7 16.31 7 18.62 7 21 C4.69 21 2.38 21 0 21 C-0.99440216 16.2710653 -0.96565891 11.90729882 -0.5625 7.125 C-0.51029297 6.43664063 -0.45808594 5.74828125 -0.40429688 5.0390625 C-0.27594902 3.35887242 -0.13887775 1.67935251 0 0 Z " fill="#78B133" transform="translate(161,34)"/>
<path d="M0 0 C1.32 0 2.64 0 4 0 C3.67515625 0.96099609 3.67515625 0.96099609 3.34375 1.94140625 C1.03978097 9.09864338 -0.34190089 14.92303341 3 22 C3.33 22.99 3.66 23.98 4 25 C5.65 25.33 7.3 25.66 9 26 C8.08486681 28.28783297 7.34515354 29.73449728 5.375 31.25 C1.10111762 32.59964707 -2.94981588 32.88802702 -7.07421875 31.1015625 C-8.75845362 30.13816649 -10.38556962 29.07628692 -12 28 C-11.62671065 22.64951939 -10.0042343 20.49087093 -6 17 C-5.67 17.33 -5.34 17.66 -5 18 C-4.34 13.71 -3.68 9.42 -3 5 C-2.34 5 -1.68 5 -1 5 C-0.67 3.35 -0.34 1.7 0 0 Z " fill="#3F7422" transform="translate(18,30)"/>
<path d="M0 0 C1.875 1.25 1.875 1.25 3 3 C3.5 5.875 3.5 5.875 3 9 C0.75 11.875 0.75 11.875 -2 14 C-3.32 14 -4.64 14 -6 14 C-6.33 16.97 -6.66 19.94 -7 23 C-8.98 23 -10.96 23 -13 23 C-13.10822792 19.93654856 -13.18741479 16.8769399 -13.25 13.8125 C-13.28351563 12.94818359 -13.31703125 12.08386719 -13.3515625 11.19335938 C-13.41612328 6.98076831 -13.37995841 4.63407589 -11.171875 0.94921875 C-7.12673272 -2.68122369 -4.75658802 -1.98191167 0 0 Z M-6 5 C-6.33 5.99 -6.66 6.98 -7 8 C-5.68 7.67 -4.36 7.34 -3 7 C-3.33 6.34 -3.66 5.68 -4 5 C-4.66 5 -5.32 5 -6 5 Z " fill="#79B233" transform="translate(198,41)"/>
<path d="M0 0 C6.70459519 4.11378556 6.70459519 4.11378556 7.9375 7.8125 C7.958125 8.534375 7.97875 9.25625 8 10 C8.99 10.33 9.98 10.66 11 11 C10 12.5 10 12.5 8 14 C2.57664697 14.52484062 -0.51521011 14.36359242 -5 11 C-4.54663921 6.12637153 -3.2910841 3.60957611 0 0 Z " fill="#7CB735" transform="translate(11,47)"/>
<path d="M0 0 C2.6875 -0.3125 2.6875 -0.3125 5 0 C4.67 0.66 4.34 1.32 4 2 C1.9375 2.625 1.9375 2.625 0 3 C0.33 3.99 0.66 4.98 1 6 C1.66 6.33 2.32 6.66 3 7 C1.25619431 10.77403358 -1.07740576 13.7668258 -3.66015625 17 C-5.02236222 19.03338034 -5.56778573 20.60948156 -6 23 C-6.350625 22.484375 -6.70125 21.96875 -7.0625 21.4375 C-9.0665239 19.6451882 -9.0665239 19.6451882 -12.5 20.0625 C-16.4076332 21.10918746 -16.84194975 21.81430677 -19 25 C-20.32 25 -21.64 25 -23 25 C-23 26.32 -23 27.64 -23 29 C-24.5 30.75 -24.5 30.75 -26 32 C-25.01 31.67 -24.02 31.34 -23 31 C-23 31.99 -23 32.98 -23 34 C-21.515 33.505 -21.515 33.505 -20 33 C-20 33.66 -20 34.32 -20 35 C-21.32 35 -22.64 35 -24 35 C-24 34.34 -24 33.68 -24 33 C-24.99 33 -25.98 33 -27 33 C-26.16173832 27.97042995 -25.45055473 25.11321642 -21.3125 21.9375 C-12.31073446 16.67231638 -12.31073446 16.67231638 -7 18 C-4.69 15.03 -2.38 12.06 0 9 C-0.99 7.68 -1.98 6.36 -3 5 C-1.8125 2.5 -1.8125 2.5 0 0 Z " fill="#162B06" transform="translate(31,2)"/>
<path d="M0 0 C1.98 0 3.96 0 6 0 C6 4.95 6 9.9 6 15 C4.02 15 2.04 15 0 15 C0 10.05 0 5.1 0 0 Z " fill="#7AB434" transform="translate(178,40)"/>
<path d="M0 0 C1.98 0 3.96 0 6 0 C7.125 1.75 7.125 1.75 8 4 C7.4375 6.1875 7.4375 6.1875 6 8 C3.20402714 8.86029934 0.92828926 9 -2 9 C-3.69719127 8.05273046 -5.36935236 7.05771739 -7 6 C-6.34 4.68 -5.68 3.36 -5 2 C-3.35 2.33 -1.7 2.66 0 3 C0 2.01 0 1.02 0 0 Z " fill="#497020" transform="translate(37,1)"/>
<path d="M0 0 C2.48013629 0.47453871 4.95903256 0.95438985 7.4375 1.4375 C8.49807617 1.63956055 8.49807617 1.63956055 9.58007812 1.84570312 C14.88671875 2.88671875 14.88671875 2.88671875 16 4 C15.74347611 10.15657345 13.5414858 14.97436553 10 20 C6.5647952 22.29013653 5.014669 22.17842973 1 22 C0.67 23.65 0.34 25.3 0 27 C1.65 26.67 3.3 26.34 5 26 C5 26.66 5 27.32 5 28 C3.02 28 1.04 28 -1 28 C-2.32 22.6 -2.32 22.6 -1 20.125 C1.98294634 18.44709269 4.64970039 18.8103604 8 19 C8.81498562 17.3970947 9.62689927 15.79262722 10.4375 14.1875 C10.88996094 13.29417969 11.34242187 12.40085937 11.80859375 11.48046875 C13.0831605 8.96000522 13.0831605 8.96000522 14 6 C13.15695313 5.79503906 12.31390625 5.59007812 11.4453125 5.37890625 C10.34960938 5.10949219 9.25390625 4.84007812 8.125 4.5625 C7.03445312 4.29566406 5.94390625 4.02882813 4.8203125 3.75390625 C2 3 2 3 0 2 C0 1.34 0 0.68 0 0 Z " fill="#152906" transform="translate(48,10)"/>
<path d="M0 0 C1.134375 0.020625 2.26875 0.04125 3.4375 0.0625 C3.7675 1.7125 4.0975 3.3625 4.4375 5.0625 C4.1075 4.0725 3.7775 3.0825 3.4375 2.0625 C1.4575 2.3925 -0.5225 2.7225 -2.5625 3.0625 C-2.5625 3.7225 -2.5625 4.3825 -2.5625 5.0625 C-1.9025 5.7225 -1.2425 6.3825 -0.5625 7.0625 C-1.305 6.93875 -2.0475 6.815 -2.8125 6.6875 C-5.90561033 6.78143347 -5.90561033 6.78143347 -7.875 10.0625 C-8.431875 11.0525 -8.98875 12.0425 -9.5625 13.0625 C-10.2225 12.0725 -10.8825 11.0825 -11.5625 10.0625 C-12.5525 10.5575 -12.5525 10.5575 -13.5625 11.0625 C-13.41009391 8.39539346 -13.06885081 6.6119129 -11.23046875 4.6171875 C-7.05625 1.0625 -7.05625 1.0625 -4.5625 1.0625 C-3.5625 0.0625 -3.5625 0.0625 0 0 Z " fill="#82BA3B" transform="translate(42.5625,7.9375)"/>
<path d="M0 0 C0.66 0 1.32 0 2 0 C1.67 0.99 1.34 1.98 1 3 C0.83098924 7.47878512 1.14215661 11.60355264 2 16 C-0.6666419 17.33332095 -2.16680303 16.67102033 -5 16 C-5.34700907 10.33218526 -4.52575819 6.95437183 -2 2 C-1.34 1.34 -0.68 0.68 0 0 Z " fill="#1C340A" transform="translate(37,14)"/>
<path d="M0 0 C2.66666667 1.33333333 5.33333333 2.66666667 8 4 C8 4.99 8 5.98 8 7 C4.04 7.66 0.08 8.32 -4 9 C-4.66 7.68 -5.32 6.36 -6 5 C-4.35 5 -2.7 5 -1 5 C-0.67 3.35 -0.34 1.7 0 0 Z " fill="#C2D8A6" transform="translate(39,25)"/>
<path d="M0 0 C0.33 0 0.66 0 1 0 C1.1799928 5.21979128 0.97094808 9.07262981 -1 14 C-2.32 13.67 -3.64 13.34 -5 13 C-4.67 11.35 -4.34 9.7 -4 8 C-8.455 8.495 -8.455 8.495 -13 9 C-13 8.34 -13 7.68 -13 7 C-11.39796533 6.63631108 -9.79325797 6.28438048 -8.1875 5.9375 C-7.29417969 5.74027344 -6.40085937 5.54304688 -5.48046875 5.33984375 C-3 5 -3 5 0 6 C0 4.02 0 2.04 0 0 Z " fill="#85BB42" transform="translate(45,34)"/>
<path d="M0 0 C0.99 0.33 1.98 0.66 3 1 C3.33 1.99 3.66 2.98 4 4 C4.66 4.33 5.32 4.66 6 5 C6 6.98 6 8.96 6 11 C4.68 11 3.36 11 2 11 C1.67 9.35 1.34 7.7 1 6 C-0.32 5.67 -1.64 5.34 -3 5 C-1.125 1.125 -1.125 1.125 0 0 Z " fill="#6BA02D" transform="translate(56,33)"/>
<path d="M0 0 C0.66 0.33 1.32 0.66 2 1 C1.79503906 1.61746094 1.59007812 2.23492187 1.37890625 2.87109375 C-0.45215293 8.62710276 -1.51449864 13.97978316 -2 20 C-2.66 20 -3.32 20 -4 20 C-4.10662326 14.88208358 -3.71167986 10.07071901 -3 5 C-2.34 5 -1.68 5 -1 5 C-0.67 3.35 -0.34 1.7 0 0 Z " fill="#192F07" transform="translate(18,30)"/>
<path d="M0 0 C1.875 0.25 1.875 0.25 4 1 C5.25 3.0625 5.25 3.0625 6 5 C4.02 5.99 4.02 5.99 2 7 C0.68 6.01 -0.64 5.02 -2 4 C-1.34 2.68 -0.68 1.36 0 0 Z " fill="#73AA33" transform="translate(32,3)"/>
<path d="M0 0 C0 1.65 0 3.3 0 5 C-1.98 5 -3.96 5 -6 5 C-6 3.35 -6 1.7 -6 0 C-3.50907189 -1.24546405 -2.58919267 -0.7767578 0 0 Z " fill="#7AB434" transform="translate(184,34)"/>
<path d="M0 0 C0.66 0 1.32 0 2 0 C2 3.33333333 2 6.66666667 2 10 C0 8.8125 0 8.8125 -2 7 C-2.375 4.4375 -2.375 4.4375 -2 2 C-1.34 1.34 -0.68 0.68 0 0 Z " fill="#152904" transform="translate(66,56)"/>
<path d="M0 0 C2.31 0.66 4.62 1.32 7 2 C6 5 6 5 4.4375 6.1875 C0.88877617 7.37040794 -2.26701621 7.12443279 -6 7 C-6 6.67 -6 6.34 -6 6 C-3.36 5.34 -0.72 4.68 2 4 C1.34 2.68 0.68 1.36 0 0 Z " fill="#58962E" transform="translate(19,55)"/>
<path d="M0 0 C1.134375 0.020625 2.26875 0.04125 3.4375 0.0625 C3.7675 1.7125 4.0975 3.3625 4.4375 5.0625 C4.1075 4.0725 3.7775 3.0825 3.4375 2.0625 C1.4575 2.3925 -0.5225 2.7225 -2.5625 3.0625 C-2.5625 3.7225 -2.5625 4.3825 -2.5625 5.0625 C-1.9025 5.7225 -1.2425 6.3825 -0.5625 7.0625 C-1.8825 6.7325 -3.2025 6.4025 -4.5625 6.0625 C-4.605221 4.39638095 -4.60313832 2.72867115 -4.5625 1.0625 C-3.5625 0.0625 -3.5625 0.0625 0 0 Z " fill="#EEF4E6" transform="translate(42.5625,7.9375)"/>
<path d="M0 0 C1.98 0 3.96 0 6 0 C6.33 1.32 6.66 2.64 7 4 C4.69 4 2.38 4 0 4 C0 2.68 0 1.36 0 0 Z " fill="#5C6454" transform="translate(40,10)"/>
<path d="M0 0 C1.32 0.33 2.64 0.66 4 1 C4.103125 1.639375 4.20625 2.27875 4.3125 2.9375 C4.539375 3.618125 4.76625 4.29875 5 5 C5.99 5.33 6.98 5.66 8 6 C6.68 6 5.36 6 4 6 C3.67 5.34 3.34 4.68 3 4 C2.34 4 1.68 4 1 4 C0.67 2.68 0.34 1.36 0 0 Z " fill="#588624" transform="translate(7,32)"/>
<path d="M0 0 C2.64 0.33 5.28 0.66 8 1 C6.68 1.99 5.36 2.98 4 4 C2.68 3.34 1.36 2.68 0 2 C0 1.34 0 0.68 0 0 Z " fill="#F5F8E8" transform="translate(33,30)"/>
<path d="M0 0 C0.99 0 1.98 0 3 0 C3.33 0.99 3.66 1.98 4 3 C2.02 3.99 2.02 3.99 0 5 C-0.5625 3.0625 -0.5625 3.0625 -1 1 C-0.67 0.67 -0.34 0.34 0 0 Z " fill="#61A333" transform="translate(54,16)"/>
</svg>
